<?xml version="1.0" encoding="UTF-8"?>
<svg version="1.1" xmlns="http://www.w3.org/2000/svg" width="1088" height="1184">
<path d="M0 0 C73.92 0 147.84 0 224 0 C224 10.56 224 21.12 224 32 C245.12 32 266.24 32 288 32 C288 42.56 288 53.12 288 64 C298.56 64 309.12 64 320 64 C320 74.56 320 85.12 320 96 C330.56 96 341.12 96 352 96 C352 106.56 352 117.12 352 128 C362.56 128 373.12 128 384 128 C384 149.12 384 170.24 384 192 C405.12 192 426.24 192 448 192 C448 202.56 448 213.12 448 224 C458.56 224 469.12 224 480 224 C480 245.12 480 266.24 480 288 C490.56 288 501.12 288 512 288 C512 340.8 512 393.6 512 448 C501.44 448 490.88 448 480 448 C480 458.56 480 469.12 480 480 C490.56 480 501.12 480 512 480 C512 490.56 512 501.12 512 512 C533.12 512 554.24 512 576 512 C576 522.56 576 533.12 576 544 C597.12 544 618.24 544 640 544 C640 554.56 640 565.12 640 576 C650.56 576 661.12 576 672 576 C672 586.56 672 597.12 672 608 C682.56 608 693.12 608 704 608 C704 618.56 704 629.12 704 640 C714.56 640 725.12 640 736 640 C736 703.36 736 766.72 736 832 C725.44 832 714.88 832 704 832 C704 842.56 704 853.12 704 864 C693.44 864 682.88 864 672 864 C672 874.56 672 885.12 672 896 C661.44 896 650.88 896 640 896 C640 906.56 640 917.12 640 928 C629.44 928 618.88 928 608 928 C608 949.12 608 970.24 608 992 C597.44 992 586.88 992 576 992 C576 1002.56 576 1013.12 576 1024 C565.44 1024 554.88 1024 544 1024 C544 1034.56 544 1045.12 544 1056 C512.32 1056 480.64 1056 448 1056 C448 1066.56 448 1077.12 448 1088 C437.44 1088 426.88 1088 416 1088 C416 1098.56 416 1109.12 416 1120 C363.2 1120 310.4 1120 256 1120 C256 1109.44 256 1098.88 256 1088 C224.32 1088 192.64 1088 160 1088 C160 1077.44 160 1066.88 160 1056 C138.88 1056 117.76 1056 96 1056 C96 1045.44 96 1034.88 96 1024 C74.88 1024 53.76 1024 32 1024 C32 1013.44 32 1002.88 32 992 C21.44 992 10.88 992 0 992 C0 981.44 0 970.88 0 960 C-10.56 960 -21.12 960 -32 960 C-32 949.44 -32 938.88 -32 928 C-42.56 928 -53.12 928 -64 928 C-64 917.44 -64 906.88 -64 896 C-74.56 896 -85.12 896 -96 896 C-96 885.44 -96 874.88 -96 864 C-106.56 864 -117.12 864 -128 864 C-128 842.88 -128 821.76 -128 800 C-138.56 800 -149.12 800 -160 800 C-160 778.88 -160 757.76 -160 736 C-170.56 736 -181.12 736 -192 736 C-192 714.88 -192 693.76 -192 672 C-202.56 672 -213.12 672 -224 672 C-224 661.44 -224 650.88 -224 640 C-234.56 640 -245.12 640 -256 640 C-256 629.44 -256 618.88 -256 608 C-266.56 608 -277.12 608 -288 608 C-288 555.2 -288 502.4 -288 448 C-277.44 448 -266.88 448 -256 448 C-256 395.2 -256 342.4 -256 288 C-245.44 288 -234.88 288 -224 288 C-224 256.32 -224 224.64 -224 192 C-213.44 192 -202.88 192 -192 192 C-192 181.44 -192 170.88 -192 160 C-181.44 160 -170.88 160 -160 160 C-160 138.88 -160 117.76 -160 96 C-149.44 96 -138.88 96 -128 96 C-128 85.44 -128 74.88 -128 64 C-106.88 64 -85.76 64 -64 64 C-64 53.44 -64 42.88 -64 32 C-42.88 32 -21.76 32 0 32 C0 21.44 0 10.88 0 0 Z " fill="#FFFFFF" transform="translate(320,32)"/>
<path d="M0 0 C73.92 0 147.84 0 224 0 C224 10.56 224 21.12 224 32 C245.12 32 266.24 32 288 32 C288 42.56 288 53.12 288 64 C298.56 64 309.12 64 320 64 C320 74.56 320 85.12 320 96 C330.56 96 341.12 96 352 96 C352 106.56 352 117.12 352 128 C362.56 128 373.12 128 384 128 C384 149.12 384 170.24 384 192 C405.12 192 426.24 192 448 192 C448 202.56 448 213.12 448 224 C458.56 224 469.12 224 480 224 C480 245.12 480 266.24 480 288 C490.56 288 501.12 288 512 288 C512 340.8 512 393.6 512 448 C501.44 448 490.88 448 480 448 C480 458.56 480 469.12 480 480 C490.56 480 501.12 480 512 480 C512 490.56 512 501.12 512 512 C490.88 512 469.76 512 448 512 C448 490.88 448 469.76 448 448 C437.44 448 426.88 448 416 448 C416 395.2 416 342.4 416 288 C405.44 288 394.88 288 384 288 C384 266.88 384 245.76 384 224 C373.44 224 362.88 224 352 224 C352 202.88 352 181.76 352 160 C341.44 160 330.88 160 320 160 C320 149.44 320 138.88 320 128 C309.44 128 298.88 128 288 128 C288 117.44 288 106.88 288 96 C266.88 96 245.76 96 224 96 C224 85.44 224 74.88 224 64 C150.08 64 76.16 64 0 64 C0 74.56 0 85.12 0 96 C-10.56 96 -21.12 96 -32 96 C-32 106.56 -32 117.12 -32 128 C-42.56 128 -53.12 128 -64 128 C-64 138.56 -64 149.12 -64 160 C-74.56 160 -85.12 160 -96 160 C-96 170.56 -96 181.12 -96 192 C-106.56 192 -117.12 192 -128 192 C-128 276.48 -128 360.96 -128 448 C-138.56 448 -149.12 448 -160 448 C-160 469.12 -160 490.24 -160 512 C-149.44 512 -138.88 512 -128 512 C-128 522.56 -128 533.12 -128 544 C-117.44 544 -106.88 544 -96 544 C-96 522.88 -96 501.76 -96 480 C-85.44 480 -74.88 480 -64 480 C-64 501.12 -64 522.24 -64 544 C-53.44 544 -42.88 544 -32 544 C-32 575.68 -32 607.36 -32 640 C-42.56 640 -53.12 640 -64 640 C-64 682.24 -64 724.48 -64 768 C-53.44 768 -42.88 768 -32 768 C-32 778.56 -32 789.12 -32 800 C-10.88 800 10.24 800 32 800 C32 810.56 32 821.12 32 832 C42.56 832 53.12 832 64 832 C64 842.56 64 853.12 64 864 C85.12 864 106.24 864 128 864 C128 874.56 128 885.12 128 896 C180.8 896 233.6 896 288 896 C288 906.56 288 917.12 288 928 C298.56 928 309.12 928 320 928 C320 917.44 320 906.88 320 896 C330.56 896 341.12 896 352 896 C352 874.88 352 853.76 352 832 C362.56 832 373.12 832 384 832 C384 810.88 384 789.76 384 768 C394.56 768 405.12 768 416 768 C416 757.44 416 746.88 416 736 C437.12 736 458.24 736 480 736 C480 725.44 480 714.88 480 704 C490.56 704 501.12 704 512 704 C512 693.44 512 682.88 512 672 C522.56 672 533.12 672 544 672 C544 661.44 544 650.88 544 640 C575.68 640 607.36 640 640 640 C640 650.56 640 661.12 640 672 C650.56 672 661.12 672 672 672 C672 650.88 672 629.76 672 608 C682.56 608 693.12 608 704 608 C704 618.56 704 629.12 704 640 C714.56 640 725.12 640 736 640 C736 703.36 736 766.72 736 832 C725.44 832 714.88 832 704 832 C704 842.56 704 853.12 704 864 C693.44 864 682.88 864 672 864 C672 874.56 672 885.12 672 896 C661.44 896 650.88 896 640 896 C640 906.56 640 917.12 640 928 C629.44 928 618.88 928 608 928 C608 949.12 608 970.24 608 992 C597.44 992 586.88 992 576 992 C576 1002.56 576 1013.12 576 1024 C565.44 1024 554.88 1024 544 1024 C544 1034.56 544 1045.12 544 1056 C512.32 1056 480.64 1056 448 1056 C448 1066.56 448 1077.12 448 1088 C437.44 1088 426.88 1088 416 1088 C416 1098.56 416 1109.12 416 1120 C363.2 1120 310.4 1120 256 1120 C256 1109.44 256 1098.88 256 1088 C224.32 1088 192.64 1088 160 1088 C160 1077.44 160 1066.88 160 1056 C138.88 1056 117.76 1056 96 1056 C96 1045.44 96 1034.88 96 1024 C74.88 1024 53.76 1024 32 1024 C32 1013.44 32 1002.88 32 992 C21.44 992 10.88 992 0 992 C0 981.44 0 970.88 0 960 C-10.56 960 -21.12 960 -32 960 C-32 949.44 -32 938.88 -32 928 C-42.56 928 -53.12 928 -64 928 C-64 917.44 -64 906.88 -64 896 C-74.56 896 -85.12 896 -96 896 C-96 885.44 -96 874.88 -96 864 C-106.56 864 -117.12 864 -128 864 C-128 842.88 -128 821.76 -128 800 C-138.56 800 -149.12 800 -160 800 C-160 778.88 -160 757.76 -160 736 C-170.56 736 -181.12 736 -192 736 C-192 714.88 -192 693.76 -192 672 C-202.56 672 -213.12 672 -224 672 C-224 661.44 -224 650.88 -224 640 C-234.56 640 -245.12 640 -256 640 C-256 629.44 -256 618.88 -256 608 C-266.56 608 -277.12 608 -288 608 C-288 555.2 -288 502.4 -288 448 C-277.44 448 -266.88 448 -256 448 C-256 395.2 -256 342.4 -256 288 C-245.44 288 -234.88 288 -224 288 C-224 256.32 -224 224.64 -224 192 C-213.44 192 -202.88 192 -192 192 C-192 181.44 -192 170.88 -192 160 C-181.44 160 -170.88 160 -160 160 C-160 138.88 -160 117.76 -160 96 C-149.44 96 -138.88 96 -128 96 C-128 85.44 -128 74.88 -128 64 C-106.88 64 -85.76 64 -64 64 C-64 53.44 -64 42.88 -64 32 C-42.88 32 -21.76 32 0 32 C0 21.44 0 10.88 0 0 Z " fill="#B5B5B5" transform="translate(320,32)"/>
<path d="M0 0 C73.92 0 147.84 0 224 0 C224 10.56 224 21.12 224 32 C245.12 32 266.24 32 288 32 C288 42.56 288 53.12 288 64 C298.56 64 309.12 64 320 64 C320 74.56 320 85.12 320 96 C330.56 96 341.12 96 352 96 C352 106.56 352 117.12 352 128 C362.56 128 373.12 128 384 128 C384 149.12 384 170.24 384 192 C405.12 192 426.24 192 448 192 C448 202.56 448 213.12 448 224 C458.56 224 469.12 224 480 224 C480 245.12 480 266.24 480 288 C490.56 288 501.12 288 512 288 C512 340.8 512 393.6 512 448 C501.44 448 490.88 448 480 448 C480 458.56 480 469.12 480 480 C490.56 480 501.12 480 512 480 C512 490.56 512 501.12 512 512 C490.88 512 469.76 512 448 512 C448 490.88 448 469.76 448 448 C437.44 448 426.88 448 416 448 C416 395.2 416 342.4 416 288 C405.44 288 394.88 288 384 288 C384 266.88 384 245.76 384 224 C373.44 224 362.88 224 352 224 C352 202.88 352 181.76 352 160 C341.44 160 330.88 160 320 160 C320 149.44 320 138.88 320 128 C309.44 128 298.88 128 288 128 C288 117.44 288 106.88 288 96 C266.88 96 245.76 96 224 96 C224 85.44 224 74.88 224 64 C150.08 64 76.16 64 0 64 C0 74.56 0 85.12 0 96 C-10.56 96 -21.12 96 -32 96 C-32 106.56 -32 117.12 -32 128 C-42.56 128 -53.12 128 -64 128 C-64 138.56 -64 149.12 -64 160 C-74.56 160 -85.12 160 -96 160 C-96 170.56 -96 181.12 -96 192 C-106.56 192 -117.12 192 -128 192 C-128 276.48 -128 360.96 -128 448 C-138.56 448 -149.12 448 -160 448 C-160 469.12 -160 490.24 -160 512 C-149.44 512 -138.88 512 -128 512 C-128 522.56 -128 533.12 -128 544 C-117.44 544 -106.88 544 -96 544 C-96 522.88 -96 501.76 -96 480 C-85.44 480 -74.88 480 -64 480 C-64 501.12 -64 522.24 -64 544 C-53.44 544 -42.88 544 -32 544 C-32 575.68 -32 607.36 -32 640 C-42.56 640 -53.12 640 -64 640 C-64 650.56 -64 661.12 -64 672 C-85.12 672 -106.24 672 -128 672 C-128 682.56 -128 693.12 -128 704 C-138.56 704 -149.12 704 -160 704 C-160 714.56 -160 725.12 -160 736 C-170.56 736 -181.12 736 -192 736 C-192 714.88 -192 693.76 -192 672 C-202.56 672 -213.12 672 -224 672 C-224 661.44 -224 650.88 -224 640 C-234.56 640 -245.12 640 -256 640 C-256 629.44 -256 618.88 -256 608 C-266.56 608 -277.12 608 -288 608 C-288 555.2 -288 502.4 -288 448 C-277.44 448 -266.88 448 -256 448 C-256 395.2 -256 342.4 -256 288 C-245.44 288 -234.88 288 -224 288 C-224 256.32 -224 224.64 -224 192 C-213.44 192 -202.88 192 -192 192 C-192 181.44 -192 170.88 -192 160 C-181.44 160 -170.88 160 -160 160 C-160 138.88 -160 117.76 -160 96 C-149.44 96 -138.88 96 -128 96 C-128 85.44 -128 74.88 -128 64 C-106.88 64 -85.76 64 -64 64 C-64 53.44 -64 42.88 -64 32 C-42.88 32 -21.76 32 0 32 C0 21.44 0 10.88 0 0 Z " fill="#000000" transform="translate(320,32)"/>
<path d="M0 0 C10.56 0 21.12 0 32 0 C32 10.56 32 21.12 32 32 C42.56 32 53.12 32 64 32 C64 95.36 64 158.72 64 224 C53.44 224 42.88 224 32 224 C32 234.56 32 245.12 32 256 C21.44 256 10.88 256 0 256 C0 266.56 0 277.12 0 288 C-10.56 288 -21.12 288 -32 288 C-32 277.44 -32 266.88 -32 256 C-63.68 256 -95.36 256 -128 256 C-128 298.24 -128 340.48 -128 384 C-170.24 384 -212.48 384 -256 384 C-256 405.12 -256 426.24 -256 448 C-298.24 448 -340.48 448 -384 448 C-384 416.32 -384 384.64 -384 352 C-373.44 352 -362.88 352 -352 352 C-352 330.88 -352 309.76 -352 288 C-341.44 288 -330.88 288 -320 288 C-320 266.88 -320 245.76 -320 224 C-309.44 224 -298.88 224 -288 224 C-288 202.88 -288 181.76 -288 160 C-277.44 160 -266.88 160 -256 160 C-256 149.44 -256 138.88 -256 128 C-234.88 128 -213.76 128 -192 128 C-192 117.44 -192 106.88 -192 96 C-181.44 96 -170.88 96 -160 96 C-160 85.44 -160 74.88 -160 64 C-149.44 64 -138.88 64 -128 64 C-128 53.44 -128 42.88 -128 32 C-96.32 32 -64.64 32 -32 32 C-32 42.56 -32 53.12 -32 64 C-21.44 64 -10.88 64 0 64 C0 42.88 0 21.76 0 0 Z " fill="#B5B5B5" transform="translate(992,640)"/>
<path d="M0 0 C21.12 0 42.24 0 64 0 C64 10.56 64 21.12 64 32 C116.8 32 169.6 32 224 32 C224 42.56 224 53.12 224 64 C234.56 64 245.12 64 256 64 C256 74.56 256 85.12 256 96 C245.44 96 234.88 96 224 96 C224 127.68 224 159.36 224 192 C266.24 192 308.48 192 352 192 C352 170.88 352 149.76 352 128 C394.24 128 436.48 128 480 128 C480 85.76 480 43.52 480 0 C511.68 0 543.36 0 576 0 C576 21.12 576 42.24 576 64 C565.44 64 554.88 64 544 64 C544 85.12 544 106.24 544 128 C533.44 128 522.88 128 512 128 C512 138.56 512 149.12 512 160 C501.44 160 490.88 160 480 160 C480 170.56 480 181.12 480 192 C448.32 192 416.64 192 384 192 C384 202.56 384 213.12 384 224 C373.44 224 362.88 224 352 224 C352 234.56 352 245.12 352 256 C299.2 256 246.4 256 192 256 C192 213.76 192 171.52 192 128 C181.44 128 170.88 128 160 128 C160 117.44 160 106.88 160 96 C128.32 96 96.64 96 64 96 C64 85.44 64 74.88 64 64 C53.44 64 42.88 64 32 64 C32 53.44 32 42.88 32 32 C21.44 32 10.88 32 0 32 C0 21.44 0 10.88 0 0 Z " fill="#8FCAE6" transform="translate(384,896)"/>
<path d="M0 0 C21.12 0 42.24 0 64 0 C64 10.56 64 21.12 64 32 C74.56 32 85.12 32 96 32 C96 42.56 96 53.12 96 64 C106.56 64 117.12 64 128 64 C128 106.24 128 148.48 128 192 C117.44 192 106.88 192 96 192 C96 202.56 96 213.12 96 224 C74.88 224 53.76 224 32 224 C32 245.12 32 266.24 32 288 C10.88 288 -10.24 288 -32 288 C-32 266.88 -32 245.76 -32 224 C-21.44 224 -10.88 224 0 224 C0 202.88 0 181.76 0 160 C-10.56 160 -21.12 160 -32 160 C-32 117.76 -32 75.52 -32 32 C-21.44 32 -10.88 32 0 32 C0 21.44 0 10.88 0 0 Z " fill="#FFFFFF" transform="translate(352,320)"/>
<path d="M0 0 C10.56 0 21.12 0 32 0 C32 10.56 32 21.12 32 32 C42.56 32 53.12 32 64 32 C64 42.56 64 53.12 64 64 C74.56 64 85.12 64 96 64 C96 116.8 96 169.6 96 224 C74.88 224 53.76 224 32 224 C32 213.44 32 202.88 32 192 C21.44 192 10.88 192 0 192 C0 181.44 0 170.88 0 160 C-10.56 160 -21.12 160 -32 160 C-32 117.76 -32 75.52 -32 32 C-21.44 32 -10.88 32 0 32 C0 21.44 0 10.88 0 0 Z " fill="#000000" transform="translate(576,256)"/>
<path d="M0 0 C31.68 0 63.36 0 96 0 C96 21.12 96 42.24 96 64 C85.44 64 74.88 64 64 64 C64 85.12 64 106.24 64 128 C53.44 128 42.88 128 32 128 C32 138.56 32 149.12 32 160 C21.44 160 10.88 160 0 160 C0 170.56 0 181.12 0 192 C-31.68 192 -63.36 192 -96 192 C-96 202.56 -96 213.12 -96 224 C-106.56 224 -117.12 224 -128 224 C-128 192.32 -128 160.64 -128 128 C-85.76 128 -43.52 128 0 128 C0 85.76 0 43.52 0 0 Z " fill="#8FCAE6" transform="translate(864,896)"/>
<path d="M0 0 C10.56 0 21.12 0 32 0 C32 52.8 32 105.6 32 160 C42.56 160 53.12 160 64 160 C64 181.12 64 202.24 64 224 C106.24 224 148.48 224 192 224 C192 234.56 192 245.12 192 256 C139.2 256 86.4 256 32 256 C32 245.44 32 234.88 32 224 C10.88 224 -10.24 224 -32 224 C-32 213.44 -32 202.88 -32 192 C-21.44 192 -10.88 192 0 192 C0 128.64 0 65.28 0 0 Z " fill="#B5B5B5" transform="translate(704,320)"/>
<path d="M0 0 C21.12 0 42.24 0 64 0 C64 10.56 64 21.12 64 32 C74.56 32 85.12 32 96 32 C96 42.56 96 53.12 96 64 C106.56 64 117.12 64 128 64 C128 95.68 128 127.36 128 160 C138.56 160 149.12 160 160 160 C160 202.24 160 244.48 160 288 C149.44 288 138.88 288 128 288 C128 256.32 128 224.64 128 192 C117.44 192 106.88 192 96 192 C96 170.88 96 149.76 96 128 C85.44 128 74.88 128 64 128 C64 106.88 64 85.76 64 64 C53.44 64 42.88 64 32 64 C32 53.44 32 42.88 32 32 C21.44 32 10.88 32 0 32 C0 21.44 0 10.88 0 0 Z " fill="#B5B5B5" transform="translate(384,192)"/>
<path d="M0 0 C31.68 0 63.36 0 96 0 C96 10.56 96 21.12 96 32 C85.44 32 74.88 32 64 32 C64 74.24 64 116.48 64 160 C53.44 160 42.88 160 32 160 C32 149.44 32 138.88 32 128 C21.44 128 10.88 128 0 128 C0 85.76 0 43.52 0 0 Z " fill="#8FCAE6" transform="translate(256,672)"/>
<path d="M0 0 C10.56 0 21.12 0 32 0 C32 10.56 32 21.12 32 32 C42.56 32 53.12 32 64 32 C64 95.36 64 158.72 64 224 C53.44 224 42.88 224 32 224 C32 171.2 32 118.4 32 64 C21.44 64 10.88 64 0 64 C0 42.88 0 21.76 0 0 Z " fill="#000000" transform="translate(992,640)"/>
<path d="M0 0 C10.56 0 21.12 0 32 0 C32 10.56 32 21.12 32 32 C53.12 32 74.24 32 96 32 C96 42.56 96 53.12 96 64 C74.88 64 53.76 64 32 64 C32 85.12 32 106.24 32 128 C10.88 128 -10.24 128 -32 128 C-32 106.88 -32 85.76 -32 64 C-21.44 64 -10.88 64 0 64 C0 42.88 0 21.76 0 0 Z " fill="#C7EDFF" transform="translate(352,480)"/>
<path d="M0 0 C21.12 0 42.24 0 64 0 C64 10.56 64 21.12 64 32 C74.56 32 85.12 32 96 32 C96 42.56 96 53.12 96 64 C106.56 64 117.12 64 128 64 C128 74.56 128 85.12 128 96 C117.44 96 106.88 96 96 96 C96 106.56 96 117.12 96 128 C85.44 128 74.88 128 64 128 C64 106.88 64 85.76 64 64 C53.44 64 42.88 64 32 64 C32 53.44 32 42.88 32 32 C21.44 32 10.88 32 0 32 C0 21.44 0 10.88 0 0 Z " fill="#8FCAE6" transform="translate(384,192)"/>
<path d="M0 0 C73.92 0 147.84 0 224 0 C224 10.56 224 21.12 224 32 C150.08 32 76.16 32 0 32 C0 21.44 0 10.88 0 0 Z " fill="#8FCAE6" transform="translate(320,96)"/>
<path d="M0 0 C31.68 0 63.36 0 96 0 C96 10.56 96 21.12 96 32 C85.44 32 74.88 32 64 32 C64 53.12 64 74.24 64 96 C53.44 96 42.88 96 32 96 C32 85.44 32 74.88 32 64 C21.44 64 10.88 64 0 64 C0 42.88 0 21.76 0 0 Z " fill="#B5B5B5" transform="translate(160,480)"/>
<path d="M0 0 C10.56 0 21.12 0 32 0 C32 63.36 32 126.72 32 192 C21.44 192 10.88 192 0 192 C0 128.64 0 65.28 0 0 Z " fill="#8FCAE6" transform="translate(704,320)"/>
<path d="M0 0 C10.56 0 21.12 0 32 0 C32 10.56 32 21.12 32 32 C42.56 32 53.12 32 64 32 C64 74.24 64 116.48 64 160 C53.44 160 42.88 160 32 160 C32 128.32 32 96.64 32 64 C21.44 64 10.88 64 0 64 C0 42.88 0 21.76 0 0 Z " fill="#000000" transform="translate(416,352)"/>
<path d="M0 0 C10.56 0 21.12 0 32 0 C32 52.8 32 105.6 32 160 C10.88 160 -10.24 160 -32 160 C-32 149.44 -32 138.88 -32 128 C-21.44 128 -10.88 128 0 128 C0 85.76 0 43.52 0 0 Z " fill="#000000" transform="translate(640,320)"/>
<path d="M0 0 C52.8 0 105.6 0 160 0 C160 10.56 160 21.12 160 32 C107.2 32 54.4 32 0 32 C0 21.44 0 10.88 0 0 Z " fill="#000000" transform="translate(576,1120)"/>
<path d="M0 0 C21.12 0 42.24 0 64 0 C64 10.56 64 21.12 64 32 C74.56 32 85.12 32 96 32 C96 42.56 96 53.12 96 64 C64.32 64 32.64 64 0 64 C0 42.88 0 21.76 0 0 Z " fill="#B5B5B5" transform="translate(896,576)"/>
<path d="M0 0 C21.12 0 42.24 0 64 0 C64 42.24 64 84.48 64 128 C53.44 128 42.88 128 32 128 C32 96.32 32 64.64 32 32 C21.44 32 10.88 32 0 32 C0 21.44 0 10.88 0 0 Z " fill="#FFFFFF" transform="translate(576,320)"/>
<path d="M0 0 C21.12 0 42.24 0 64 0 C64 10.56 64 21.12 64 32 C53.44 32 42.88 32 32 32 C32 53.12 32 74.24 32 96 C21.44 96 10.88 96 0 96 C0 64.32 0 32.64 0 0 Z " fill="#000000" transform="translate(896,928)"/>
<path d="M0 0 C10.56 0 21.12 0 32 0 C32 42.24 32 84.48 32 128 C21.44 128 10.88 128 0 128 C0 85.76 0 43.52 0 0 Z " fill="#8FCAE6" transform="translate(992,736)"/>
<path d="M0 0 C10.56 0 21.12 0 32 0 C32 42.24 32 84.48 32 128 C21.44 128 10.88 128 0 128 C0 85.76 0 43.52 0 0 Z " fill="#000000" transform="translate(320,352)"/>
<path d="M0 0 C10.56 0 21.12 0 32 0 C32 42.24 32 84.48 32 128 C21.44 128 10.88 128 0 128 C0 85.76 0 43.52 0 0 Z " fill="#8FCAE6" transform="translate(192,224)"/>
<path d="M0 0 C31.68 0 63.36 0 96 0 C96 10.56 96 21.12 96 32 C64.32 32 32.64 32 0 32 C0 21.44 0 10.88 0 0 Z " fill="#000000" transform="translate(480,1088)"/>
<path d="M0 0 C31.68 0 63.36 0 96 0 C96 10.56 96 21.12 96 32 C64.32 32 32.64 32 0 32 C0 21.44 0 10.88 0 0 Z " fill="#000000" transform="translate(768,1056)"/>
<path d="M0 0 C31.68 0 63.36 0 96 0 C96 10.56 96 21.12 96 32 C64.32 32 32.64 32 0 32 C0 21.44 0 10.88 0 0 Z " fill="#8FCAE6" transform="translate(864,672)"/>
<path d="M0 0 C10.56 0 21.12 0 32 0 C32 31.68 32 63.36 32 96 C21.44 96 10.88 96 0 96 C0 64.32 0 32.64 0 0 Z " fill="#B5B5B5" transform="translate(576,352)"/>
<path d="M0 0 C10.56 0 21.12 0 32 0 C32 10.56 32 21.12 32 32 C42.56 32 53.12 32 64 32 C64 42.56 64 53.12 64 64 C42.88 64 21.76 64 0 64 C0 42.88 0 21.76 0 0 Z " fill="#8FCAE6" transform="translate(576,256)"/>
<path d="M0 0 C10.56 0 21.12 0 32 0 C32 31.68 32 63.36 32 96 C21.44 96 10.88 96 0 96 C0 64.32 0 32.64 0 0 Z " fill="#B5B5B5" transform="translate(480,288)"/>
<path d="M0 0 C21.12 0 42.24 0 64 0 C64 10.56 64 21.12 64 32 C42.88 32 21.76 32 0 32 C0 21.44 0 10.88 0 0 Z " fill="#000000" transform="translate(416,1056)"/>
<path d="M0 0 C21.12 0 42.24 0 64 0 C64 10.56 64 21.12 64 32 C42.88 32 21.76 32 0 32 C0 21.44 0 10.88 0 0 Z " fill="#000000" transform="translate(352,1024)"/>
<path d="M0 0 C10.56 0 21.12 0 32 0 C32 21.12 32 42.24 32 64 C21.44 64 10.88 64 0 64 C0 42.88 0 21.76 0 0 Z " fill="#000000" transform="translate(192,832)"/>
<path d="M0 0 C10.56 0 21.12 0 32 0 C32 21.12 32 42.24 32 64 C21.44 64 10.88 64 0 64 C0 42.88 0 21.76 0 0 Z " fill="#000000" transform="translate(160,768)"/>
<path d="M0 0 C10.56 0 21.12 0 32 0 C32 21.12 32 42.24 32 64 C21.44 64 10.88 64 0 64 C0 42.88 0 21.76 0 0 Z " fill="#FFFFFF" transform="translate(992,736)"/>
<path d="M0 0 C21.12 0 42.24 0 64 0 C64 10.56 64 21.12 64 32 C42.88 32 21.76 32 0 32 C0 21.44 0 10.88 0 0 Z " fill="#8FCAE6" transform="translate(960,704)"/>
<path d="M0 0 C10.56 0 21.12 0 32 0 C32 21.12 32 42.24 32 64 C21.44 64 10.88 64 0 64 C0 42.88 0 21.76 0 0 Z " fill="#B5B5B5" transform="translate(992,640)"/>
<path d="M0 0 C21.12 0 42.24 0 64 0 C64 10.56 64 21.12 64 32 C42.88 32 21.76 32 0 32 C0 21.44 0 10.88 0 0 Z " fill="#000000" transform="translate(896,576)"/>
<path d="M0 0 C21.12 0 42.24 0 64 0 C64 10.56 64 21.12 64 32 C42.88 32 21.76 32 0 32 C0 21.44 0 10.88 0 0 Z " fill="#000000" transform="translate(832,544)"/>
<path d="M0 0 C21.12 0 42.24 0 64 0 C64 10.56 64 21.12 64 32 C42.88 32 21.76 32 0 32 C0 21.44 0 10.88 0 0 Z " fill="#B5B5B5" transform="translate(768,544)"/>
<path d="M0 0 C10.56 0 21.12 0 32 0 C32 21.12 32 42.24 32 64 C21.44 64 10.88 64 0 64 C0 42.88 0 21.76 0 0 Z " fill="#B5B5B5" transform="translate(256,512)"/>
<path d="M0 0 C21.12 0 42.24 0 64 0 C64 10.56 64 21.12 64 32 C42.88 32 21.76 32 0 32 C0 21.44 0 10.88 0 0 Z " fill="#000000" transform="translate(544,512)"/>
<path d="M0 0 C21.12 0 42.24 0 64 0 C64 10.56 64 21.12 64 32 C42.88 32 21.76 32 0 32 C0 21.44 0 10.88 0 0 Z " fill="#000000" transform="translate(384,512)"/>
<path d="M0 0 C21.12 0 42.24 0 64 0 C64 10.56 64 21.12 64 32 C42.88 32 21.76 32 0 32 C0 21.44 0 10.88 0 0 Z " fill="#B5B5B5" transform="translate(608,448)"/>
<path d="M0 0 C10.56 0 21.12 0 32 0 C32 21.12 32 42.24 32 64 C21.44 64 10.88 64 0 64 C0 42.88 0 21.76 0 0 Z " fill="#B5B5B5" transform="translate(768,320)"/>
<path d="M0 0 C21.12 0 42.24 0 64 0 C64 10.56 64 21.12 64 32 C42.88 32 21.76 32 0 32 C0 21.44 0 10.88 0 0 Z " fill="#000000" transform="translate(352,320)"/>
<path d="M0 0 C10.56 0 21.12 0 32 0 C32 21.12 32 42.24 32 64 C21.44 64 10.88 64 0 64 C0 42.88 0 21.76 0 0 Z " fill="#8FCAE6" transform="translate(672,256)"/>
<path d="M0 0 C10.56 0 21.12 0 32 0 C32 21.12 32 42.24 32 64 C21.44 64 10.88 64 0 64 C0 42.88 0 21.76 0 0 Z " fill="#8FCAE6" transform="translate(640,192)"/>
<path d="M0 0 C10.56 0 21.12 0 32 0 C32 21.12 32 42.24 32 64 C21.44 64 10.88 64 0 64 C0 42.88 0 21.76 0 0 Z " fill="#B5B5B5" transform="translate(192,224)"/>
<path d="M0 0 C21.12 0 42.24 0 64 0 C64 10.56 64 21.12 64 32 C42.88 32 21.76 32 0 32 C0 21.44 0 10.88 0 0 Z " fill="#B5B5B5" transform="translate(544,128)"/>
<path d="M0 0 C21.12 0 42.24 0 64 0 C64 10.56 64 21.12 64 32 C42.88 32 21.76 32 0 32 C0 21.44 0 10.88 0 0 Z " fill="#B5B5B5" transform="translate(480,96)"/>
<path d="M0 0 C21.12 0 42.24 0 64 0 C64 10.56 64 21.12 64 32 C42.88 32 21.76 32 0 32 C0 21.44 0 10.88 0 0 Z " fill="#B5B5B5" transform="translate(320,96)"/>
<path d="M0 0 C10.56 0 21.12 0 32 0 C32 10.56 32 21.12 32 32 C21.44 32 10.88 32 0 32 C0 21.44 0 10.88 0 0 Z " fill="#000000" transform="translate(736,1088)"/>
<path d="M0 0 C10.56 0 21.12 0 32 0 C32 10.56 32 21.12 32 32 C21.44 32 10.88 32 0 32 C0 21.44 0 10.88 0 0 Z " fill="#B5B5B5" transform="translate(576,1088)"/>
<path d="M0 0 C10.56 0 21.12 0 32 0 C32 10.56 32 21.12 32 32 C21.44 32 10.88 32 0 32 C0 21.44 0 10.88 0 0 Z " fill="#000000" transform="translate(864,1024)"/>
<path d="M0 0 C10.56 0 21.12 0 32 0 C32 10.56 32 21.12 32 32 C21.44 32 10.88 32 0 32 C0 21.44 0 10.88 0 0 Z " fill="#000000" transform="translate(320,992)"/>
<path d="M0 0 C10.56 0 21.12 0 32 0 C32 10.56 32 21.12 32 32 C21.44 32 10.88 32 0 32 C0 21.44 0 10.88 0 0 Z " fill="#FFFFFF" transform="translate(576,960)"/>
<path d="M0 0 C10.56 0 21.12 0 32 0 C32 10.56 32 21.12 32 32 C21.44 32 10.88 32 0 32 C0 21.44 0 10.88 0 0 Z " fill="#000000" transform="translate(288,960)"/>
<path d="M0 0 C10.56 0 21.12 0 32 0 C32 10.56 32 21.12 32 32 C21.44 32 10.88 32 0 32 C0 21.44 0 10.88 0 0 Z " fill="#8FCAE6" transform="translate(640,928)"/>
<path d="M0 0 C10.56 0 21.12 0 32 0 C32 10.56 32 21.12 32 32 C21.44 32 10.88 32 0 32 C0 21.44 0 10.88 0 0 Z " fill="#000000" transform="translate(256,928)"/>
<path d="M0 0 C10.56 0 21.12 0 32 0 C32 10.56 32 21.12 32 32 C21.44 32 10.88 32 0 32 C0 21.44 0 10.88 0 0 Z " fill="#000000" transform="translate(960,896)"/>
<path d="M0 0 C10.56 0 21.12 0 32 0 C32 10.56 32 21.12 32 32 C21.44 32 10.88 32 0 32 C0 21.44 0 10.88 0 0 Z " fill="#000000" transform="translate(224,896)"/>
<path d="M0 0 C10.56 0 21.12 0 32 0 C32 10.56 32 21.12 32 32 C21.44 32 10.88 32 0 32 C0 21.44 0 10.88 0 0 Z " fill="#000000" transform="translate(992,864)"/>
<path d="M0 0 C10.56 0 21.12 0 32 0 C32 10.56 32 21.12 32 32 C21.44 32 10.88 32 0 32 C0 21.44 0 10.88 0 0 Z " fill="#8FCAE6" transform="translate(960,864)"/>
<path d="M0 0 C10.56 0 21.12 0 32 0 C32 10.56 32 21.12 32 32 C21.44 32 10.88 32 0 32 C0 21.44 0 10.88 0 0 Z " fill="#8FCAE6" transform="translate(352,864)"/>
<path d="M0 0 C10.56 0 21.12 0 32 0 C32 10.56 32 21.12 32 32 C21.44 32 10.88 32 0 32 C0 21.44 0 10.88 0 0 Z " fill="#8FCAE6" transform="translate(320,832)"/>
<path d="M0 0 C10.56 0 21.12 0 32 0 C32 10.56 32 21.12 32 32 C21.44 32 10.88 32 0 32 C0 21.44 0 10.88 0 0 Z " fill="#B5B5B5" transform="translate(256,672)"/>
<path d="M0 0 C10.56 0 21.12 0 32 0 C32 10.56 32 21.12 32 32 C21.44 32 10.88 32 0 32 C0 21.44 0 10.88 0 0 Z " fill="#000000" transform="translate(992,640)"/>
<path d="M0 0 C10.56 0 21.12 0 32 0 C32 10.56 32 21.12 32 32 C21.44 32 10.88 32 0 32 C0 21.44 0 10.88 0 0 Z " fill="#8FCAE6" transform="translate(960,640)"/>
<path d="M0 0 C10.56 0 21.12 0 32 0 C32 10.56 32 21.12 32 32 C21.44 32 10.88 32 0 32 C0 21.44 0 10.88 0 0 Z " fill="#000000" transform="translate(960,608)"/>
<path d="M0 0 C10.56 0 21.12 0 32 0 C32 10.56 32 21.12 32 32 C21.44 32 10.88 32 0 32 C0 21.44 0 10.88 0 0 Z " fill="#B5B5B5" transform="translate(224,608)"/>
<path d="M0 0 C10.56 0 21.12 0 32 0 C32 10.56 32 21.12 32 32 C21.44 32 10.88 32 0 32 C0 21.44 0 10.88 0 0 Z " fill="#8FCAE6" transform="translate(864,576)"/>
<path d="M0 0 C10.56 0 21.12 0 32 0 C32 10.56 32 21.12 32 32 C21.44 32 10.88 32 0 32 C0 21.44 0 10.88 0 0 Z " fill="#8FCAE6" transform="translate(736,544)"/>
<path d="M0 0 C10.56 0 21.12 0 32 0 C32 10.56 32 21.12 32 32 C21.44 32 10.88 32 0 32 C0 21.44 0 10.88 0 0 Z " fill="#000000" transform="translate(512,544)"/>
<path d="M0 0 C10.56 0 21.12 0 32 0 C32 10.56 32 21.12 32 32 C21.44 32 10.88 32 0 32 C0 21.44 0 10.88 0 0 Z " fill="#8FCAE6" transform="translate(672,512)"/>
<path d="M0 0 C10.56 0 21.12 0 32 0 C32 10.56 32 21.12 32 32 C21.44 32 10.88 32 0 32 C0 21.44 0 10.88 0 0 Z " fill="#8FCAE6" transform="translate(512,512)"/>
<path d="M0 0 C10.56 0 21.12 0 32 0 C32 10.56 32 21.12 32 32 C21.44 32 10.88 32 0 32 C0 21.44 0 10.88 0 0 Z " fill="#8FCAE6" transform="translate(256,512)"/>
<path d="M0 0 C10.56 0 21.12 0 32 0 C32 10.56 32 21.12 32 32 C21.44 32 10.88 32 0 32 C0 21.44 0 10.88 0 0 Z " fill="#000000" transform="translate(352,480)"/>
<path d="M0 0 C10.56 0 21.12 0 32 0 C32 10.56 32 21.12 32 32 C21.44 32 10.88 32 0 32 C0 21.44 0 10.88 0 0 Z " fill="#B5B5B5" transform="translate(224,480)"/>
<path d="M0 0 C10.56 0 21.12 0 32 0 C32 10.56 32 21.12 32 32 C21.44 32 10.88 32 0 32 C0 21.44 0 10.88 0 0 Z " fill="#000000" transform="translate(192,480)"/>
<path d="M0 0 C10.56 0 21.12 0 32 0 C32 10.56 32 21.12 32 32 C21.44 32 10.88 32 0 32 C0 21.44 0 10.88 0 0 Z " fill="#000000" transform="translate(608,448)"/>
<path d="M0 0 C10.56 0 21.12 0 32 0 C32 10.56 32 21.12 32 32 C21.44 32 10.88 32 0 32 C0 21.44 0 10.88 0 0 Z " fill="#B5B5B5" transform="translate(352,448)"/>
<path d="M0 0 C10.56 0 21.12 0 32 0 C32 10.56 32 21.12 32 32 C21.44 32 10.88 32 0 32 C0 21.44 0 10.88 0 0 Z " fill="#B5B5B5" transform="translate(192,448)"/>
<path d="M0 0 C10.56 0 21.12 0 32 0 C32 10.56 32 21.12 32 32 C21.44 32 10.88 32 0 32 C0 21.44 0 10.88 0 0 Z " fill="#8FCAE6" transform="translate(608,416)"/>
<path d="M0 0 C10.56 0 21.12 0 32 0 C32 10.56 32 21.12 32 32 C21.44 32 10.88 32 0 32 C0 21.44 0 10.88 0 0 Z " fill="#000000" transform="translate(576,416)"/>
<path d="M0 0 C10.56 0 21.12 0 32 0 C32 10.56 32 21.12 32 32 C21.44 32 10.88 32 0 32 C0 21.44 0 10.88 0 0 Z " fill="#8FCAE6" transform="translate(576,352)"/>
<path d="M0 0 C10.56 0 21.12 0 32 0 C32 10.56 32 21.12 32 32 C21.44 32 10.88 32 0 32 C0 21.44 0 10.88 0 0 Z " fill="#8FCAE6" transform="translate(480,352)"/>
<path d="M0 0 C10.56 0 21.12 0 32 0 C32 10.56 32 21.12 32 32 C21.44 32 10.88 32 0 32 C0 21.44 0 10.88 0 0 Z " fill="#B5B5B5" transform="translate(704,320)"/>
<path d="M0 0 C10.56 0 21.12 0 32 0 C32 10.56 32 21.12 32 32 C21.44 32 10.88 32 0 32 C0 21.44 0 10.88 0 0 Z " fill="#B5B5B5" transform="translate(416,320)"/>
<path d="M0 0 C10.56 0 21.12 0 32 0 C32 10.56 32 21.12 32 32 C21.44 32 10.88 32 0 32 C0 21.44 0 10.88 0 0 Z " fill="#000000" transform="translate(608,288)"/>
<path d="M0 0 C10.56 0 21.12 0 32 0 C32 10.56 32 21.12 32 32 C21.44 32 10.88 32 0 32 C0 21.44 0 10.88 0 0 Z " fill="#8FCAE6" transform="translate(448,288)"/>
<path d="M0 0 C10.56 0 21.12 0 32 0 C32 10.56 32 21.12 32 32 C21.44 32 10.88 32 0 32 C0 21.44 0 10.88 0 0 Z " fill="#B5B5B5" transform="translate(736,256)"/>
<path d="M0 0 C10.56 0 21.12 0 32 0 C32 10.56 32 21.12 32 32 C21.44 32 10.88 32 0 32 C0 21.44 0 10.88 0 0 Z " fill="#B5B5B5" transform="translate(672,256)"/>
<path d="M0 0 C10.56 0 21.12 0 32 0 C32 10.56 32 21.12 32 32 C21.44 32 10.88 32 0 32 C0 21.44 0 10.88 0 0 Z " fill="#000000" transform="translate(576,256)"/>
<path d="M0 0 C10.56 0 21.12 0 32 0 C32 10.56 32 21.12 32 32 C21.44 32 10.88 32 0 32 C0 21.44 0 10.88 0 0 Z " fill="#8FCAE6" transform="translate(480,256)"/>
<path d="M0 0 C10.56 0 21.12 0 32 0 C32 10.56 32 21.12 32 32 C21.44 32 10.88 32 0 32 C0 21.44 0 10.88 0 0 Z " fill="#B5B5B5" transform="translate(448,256)"/>
<path d="M0 0 C10.56 0 21.12 0 32 0 C32 10.56 32 21.12 32 32 C21.44 32 10.88 32 0 32 C0 21.44 0 10.88 0 0 Z " fill="#B5B5B5" transform="translate(640,192)"/>
<path d="M0 0 C10.56 0 21.12 0 32 0 C32 10.56 32 21.12 32 32 C21.44 32 10.88 32 0 32 C0 21.44 0 10.88 0 0 Z " fill="#8FCAE6" transform="translate(224,192)"/>
<path d="M0 0 C10.56 0 21.12 0 32 0 C32 10.56 32 21.12 32 32 C21.44 32 10.88 32 0 32 C0 21.44 0 10.88 0 0 Z " fill="#B5B5B5" transform="translate(608,160)"/>
<path d="M0 0 C10.56 0 21.12 0 32 0 C32 10.56 32 21.12 32 32 C21.44 32 10.88 32 0 32 C0 21.44 0 10.88 0 0 Z " fill="#8FCAE6" transform="translate(256,160)"/>
<path d="M0 0 C10.56 0 21.12 0 32 0 C32 10.56 32 21.12 32 32 C21.44 32 10.88 32 0 32 C0 21.44 0 10.88 0 0 Z " fill="#8FCAE6" transform="translate(288,128)"/>
</svg>
